<?xml version="1.0" encoding="UTF-8"?>
<svg version="1.1" xmlns="http://www.w3.org/2000/svg" width="256" height="256">
<path d="M0 0 C2.93246927 2.29099162 5.45181963 4.79255836 8 7.5 C13.04047346 12.63872831 17.65412257 14.42350238 24.8125 14.5625 C27.58220574 14.50367439 29.31994377 14.20585208 32 13.3125 C41.38785973 12.56658606 50.26258809 12.1425196 58 18.3125 C63.89205828 24.40279576 66.78062496 29.98431556 67.93676758 38.3918457 C69.24135689 47.69276418 71.20971795 53.50204837 78.75 59.5 C80.58921023 60.5257134 82.4478727 61.5219529 84.35546875 62.4140625 C92.49347604 66.23067711 98.62162372 70.67887172 102 79.3125 C104.85906173 88.92934399 102.38559682 97.78903296 97.87890625 106.47265625 C97.52699219 107.12105469 97.17507812 107.76945312 96.8125 108.4375 C93.88678695 114.13799645 93.22961434 119.5981197 95.125 125.75 C96.72589591 129.98199798 98.768387 133.97387225 100.9140625 137.953125 C103.93157178 144.50915236 103.86182641 152.08879248 101.875 158.9375 C98.91422291 166.84208628 93.30946529 171.46405361 86 175.3125 C85.16726562 175.67601562 84.33453125 176.03953125 83.4765625 176.4140625 C76.76776158 179.37560525 72.78232794 182.3832629 70 189.3125 C68.99624434 193.28912762 68.27707576 197.31987995 67.52880859 201.35083008 C65.72128548 210.62743426 61.94275786 216.76478067 54.06640625 222.16015625 C47.574339 225.78049621 39.77703271 226.27554979 32.55859375 224.8203125 C25.62360174 223.44390187 18.71542054 223.53987234 12.3125 226.70703125 C8.8083921 229.13978183 6.01088938 232.22114132 3.08813477 235.29956055 C-2.84425992 241.42690195 -9.06115914 243.86268429 -17.515625 244.4140625 C-26.95710644 244.02808999 -33.5797358 238.84230102 -39.875 232.25 C-45.91623786 226.13673546 -50.09369431 224.22368526 -58.625 224.0625 C-62.50810032 224.16932532 -66.17487266 224.63247736 -70 225.3125 C-78.72929649 225.8944531 -86.00822334 224.34779866 -92.875 218.6875 C-98.79408213 212.91431074 -100.70157357 207.51848105 -102.02661133 199.42993164 C-103.71100377 188.77337121 -103.71100377 188.77337121 -110 180.3125 C-113.27444853 178.15768404 -116.67902175 176.26343459 -120.17456055 174.49243164 C-124.53677708 172.27882385 -127.68373193 170.01001787 -131 166.3125 C-131.721875 165.508125 -132.44375 164.70375 -133.1875 163.875 C-137.44925043 157.84976663 -137.78049476 151.47972627 -137 144.3125 C-135.64673665 139.11568972 -133.83863917 134.40131082 -130.75 130 C-127.56705185 124.63117179 -128.05318576 118.27005195 -129 112.3125 C-130.3863219 108.40228568 -132.32968085 104.87787159 -134.37109375 101.2734375 C-137.87810859 94.89857599 -138.04362564 87.65046202 -136.3515625 80.6171875 C-132.61712041 70.17990062 -125.87500834 66.07466375 -116.4296875 61.296875 C-110.38874934 58.16723234 -106.64773293 54.8551258 -103.75 48.625 C-102.97631321 45.44403827 -102.97631321 45.44403827 -102.65625 42.69140625 C-101.37316899 33.20400916 -98.81938448 23.85912147 -91 17.6875 C-85.43345196 13.86049822 -80.04291057 13.051506 -73.375 13.125 C-71.43753906 13.13466797 -71.43753906 13.13466797 -69.4609375 13.14453125 C-66.71964195 13.27757381 -64.59886435 13.56668904 -62 14.3125 C-55.44711537 14.86782921 -50.56287347 13.94407687 -45 10.3125 C-42.39128316 7.87248567 -39.94596616 5.31802497 -37.48828125 2.7265625 C-26.77722606 -7.66501067 -12.00510655 -8.58844855 0 0 Z " fill="#FF0404" transform="translate(145,8.6875)"/>
<path d="M0 0 C3.60132437 2.26750053 5.61456691 3.66580855 6.8125 7.8125 C4.72992192 15.98261401 -4.65763747 22.84516964 -10.44140625 28.6796875 C-11.32730942 29.57366241 -12.21321259 30.46763733 -13.1259613 31.38870239 C-14.98769057 33.26418168 -16.85091979 35.13817309 -18.71557617 37.01074219 C-21.09667282 39.40298362 -23.4658382 41.80670053 -25.83268833 44.21302605 C-28.11025466 46.52304022 -30.40182098 48.81909502 -32.69140625 51.1171875 C-33.53530411 51.97859344 -34.37920197 52.83999939 -35.24867249 53.72750854 C-36.04647629 54.52238678 -36.84428009 55.31726501 -37.66625977 56.13623047 C-38.36018326 56.8360202 -39.05410675 57.53580994 -39.76905823 58.25680542 C-43.63586967 61.27822213 -48.02983939 62.30937073 -52.875 62.5 C-53.65617187 62.5515625 -54.43734375 62.603125 -55.2421875 62.65625 C-63.93248137 60.58830472 -70.60641567 51.67069234 -76.69262695 45.51318359 C-78.32119769 43.866204 -79.95778243 42.22752009 -81.59570312 40.58984375 C-82.64370439 39.53693112 -83.69124706 38.4835618 -84.73828125 37.4296875 C-85.22267166 36.94418427 -85.70706207 36.45868103 -86.20613098 35.95846558 C-92.84694734 29.22442128 -92.84694734 29.22442128 -93.4375 24.5 C-93 21 -93 21 -91.5 18.5625 C-88.06015487 16.41259679 -84.90893869 16.31222238 -81 17 C-78.57477019 18.64230569 -76.92273298 19.99923062 -74.9375 22.0625 C-74.40165283 22.5874707 -73.86580566 23.11244141 -73.3137207 23.65332031 C-71.523053 25.4170549 -69.76258296 27.208226 -68 29 C-66.61109843 30.38064216 -65.22042143 31.75950018 -63.828125 33.13671875 C-60.19740917 36.73689228 -56.59104129 40.36027931 -53 44 C-50.39178539 42.80905903 -49.07749834 42.09687293 -47.25 39.8125 C-45.44259526 37.55324408 -43.9705143 36.06312859 -41.7890625 34.25390625 C-34.86659977 28.27206374 -28.55676884 21.6230107 -22.125 15.125 C-19.5054633 12.47891394 -16.88265329 9.83613587 -14.2578125 7.1953125 C-13.65889191 6.58809357 -13.05997131 5.98087463 -12.44290161 5.35525513 C-8.17721968 1.06416794 -6.17344781 -0.7123209 0 0 Z " fill="#FFF9F9" transform="translate(176,95)"/>
<path d="M0 0 C2.375 1.5 2.375 1.5 4 4 C4.7072621 7.34883777 4.91609898 8.79239423 4 12 C1.0774999 16.08192843 -2.50302155 19.48302355 -6.10546875 22.95703125 C-7.14884358 23.99054794 -8.19059378 25.02570711 -9.23078918 26.06242371 C-11.41070141 28.22708692 -13.60283432 30.37820425 -15.8059082 32.51928711 C-18.62287833 35.25710943 -21.41788207 38.0160379 -24.20522594 40.78398609 C-26.87333023 43.43209299 -29.55118629 46.07024162 -32.23046875 48.70703125 C-32.73757071 49.20734171 -33.24467266 49.70765217 -33.76714134 50.22312355 C-35.21210493 51.64479315 -36.66486502 53.0585252 -38.11791992 54.47192383 C-38.94176682 55.27608231 -39.76561371 56.08024078 -40.61442566 56.9087677 C-44.1651288 60.02137038 -47.28408793 62.4358958 -52.125 62.3125 C-56 62 -56 62 -59 60 C-58.42592911 59.42814972 -57.85185822 58.85629944 -57.26039124 58.26712036 C-51.85738284 52.88412818 -46.45676923 47.49875018 -41.05884647 42.11065865 C-38.28347267 39.34050902 -35.50717399 36.5712996 -32.72875977 33.80419922 C-30.04873923 31.13502401 -27.37115095 28.4634313 -24.69524956 25.7901268 C-23.67262919 24.76935771 -22.64912742 23.74947085 -21.62474251 22.73047256 C-20.19290935 21.30587156 -18.76446187 19.87787011 -17.33618164 18.44970703 C-16.52121719 17.6369632 -15.70625275 16.82421936 -14.86659241 15.98684692 C-12.94801782 14.13477122 -12.94801782 14.13477122 -12 12 C-12.1546875 10.3603125 -12.1546875 10.3603125 -12.3125 8.6875 C-12 5 -12 5 -9.375 2.0625 C-5.72264019 -0.16949766 -4.17448686 -0.81674743 0 0 Z " fill="#FF6161" transform="translate(193,94)"/>
<path d="M0 0 C5.40740918 1.56592613 9.13235345 6.46914081 12.90283203 10.42773438 C13.82902344 11.348125 14.75521484 12.26851562 15.70947266 13.21679688 C20.69689499 18.3188301 20.69689499 18.3188301 22.34033203 20.67773438 C22.1607309 24.91612649 19.32970173 26.91831619 16.34033203 29.67773438 C12.60557015 28.12221198 10.25278594 25.82048909 7.42626953 22.95898438 C6.50072266 22.02699219 5.57517578 21.095 4.62158203 20.13476562 C3.65271415 19.14920441 2.68396543 18.16352605 1.71533203 17.17773438 C0.73923424 16.19159709 -0.23732367 15.20591503 -1.21435547 14.22070312 C-3.7003003 11.71045436 -6.18042813 9.19459985 -8.65966797 6.67773438 C-9.31966797 6.01773438 -9.97966797 5.35773438 -10.65966797 4.67773438 C-7.39179839 1.4098648 -4.71143355 -0.12514914 0 0 Z " fill="#FF6363" transform="translate(108.65966796875,110.322265625)"/>
<path d="M0 0 C-1.46966358 3.39859703 -3.38037514 5.64963709 -6 8.25 C-6.70125 8.95640625 -7.4025 9.6628125 -8.125 10.390625 C-10 12 -10 12 -12 12 C-10.82763323 7.16398706 -5.40844892 0 0 0 Z " fill="#FF7575" transform="translate(23,74)"/>
<path d="M0 0 C0.66 0.33 1.32 0.66 2 1 C-2.75 6.875 -2.75 6.875 -5 8 C-5.33 8.99 -5.66 9.98 -6 11 C-6.66 11 -7.32 11 -8 11 C-6.60366572 6.55711819 -4.39598172 4.13475236 -1 1 C-0.67 0.67 -0.34 0.34 0 0 Z " fill="#FF8B8B" transform="translate(55,26)"/>
<path d="M0 0 C0.33 0 0.66 0 1 0 C1.05423638 1.91635217 1.09289963 3.83314925 1.125 5.75 C1.14820313 6.81734375 1.17140625 7.8846875 1.1953125 8.984375 C1.00487687 11.92470106 0.52670104 13.52361878 -1 16 C-1.66 16 -2.32 16 -3 16 C-2.01 10.72 -1.02 5.44 0 0 Z " fill="#FFBBBB" transform="translate(43,46)"/>
</svg>
