<svg width="1500" height="1500" version="1.1" xmlns="http://www.w3.org/2000/svg" desc="Created with imagetracer.js version 1.2.6" ><path fill="rgb(9,8,8)" stroke="rgb(9,8,8)" stroke-width="1" opacity="0.00784313725490196" d="M 0 0 L 1500 0 L 1500 1500 L 0 1500 L 0 0 Z M 735 19 L 724 23 L 708 25 L 701 29 L 686 33 L 660 48 L 645 60 L 635 71 L 621 85 L 619 85 L 611 96 L 596 111 L 580 123 L 563 131 L 548 135 L 542 138 L 537 138 L 527 141 L 490 141 L 451 131 L 387 131 L 374 134 L 352 141 L 334 150 L 310 167 L 303 175 Q 300 174 301 177 L 298 179 L 277 209 L 274 218 L 268 228 L 265 240 L 261 249 Q 261 257 258 263 L 258 269 L 256 272 L 256 292 Q 251 303 251 320 L 245 339 L 232 365 L 215 385 L 193 404 L 179 412 L 172 414 L 136 431 L 121 440 L 106 452 L 103 456 L 99 459 L 97 462 L 91 467 L 87 472 L 82 475 L 79 481 L 76 482 L 57 519 L 55 531 L 52 537 Q 53 541 51 543 L 51 563 L 50 564 L 51 599 L 53 609 L 55 612 L 56 621 L 67 649 L 80 669 L 82 675 L 85 678 L 95 698 L 99 709 L 100 717 L 102 720 L 102 726 L 104 732 L 104 768 L 102 772 L 102 779 L 100 782 L 99 790 L 87 817 L 74 837 L 61 864 L 55 883 L 55 888 L 52 893 Q 54 898 51 900 L 51 921 L 50 922 L 51 957 L 53 965 L 55 967 L 55 972 L 58 983 L 74 1013 L 90 1031 Q 89 1033 92 1032 L 93 1035 L 120 1057 L 148 1072 L 157 1075 L 189 1091 L 207 1105 L 218 1118 L 224 1122 L 224 1125 L 230 1131 L 238 1145 L 249 1171 L 251 1178 L 252 1194 Q 255 1197 254 1204 L 256 1207 L 256 1226 L 258 1229 L 258 1235 L 261 1245 L 261 1250 L 265 1263 L 277 1290 L 296 1317 Q 295 1319 298 1318 L 300 1322 L 303 1323 L 306 1328 L 330 1345 L 350 1355 L 368 1362 Q 378 1362 384 1366 L 449 1366 L 461 1362 L 474 1361 L 484 1357 L 532 1357 Q 541 1362 555 1363 L 571 1371 L 576 1372 L 596 1387 L 598 1391 L 607 1399 Q 606 1401 609 1400 L 613 1406 L 617 1408 L 621 1415 L 629 1422 Q 628 1424 631 1423 L 642 1435 Q 644 1434 643 1437 L 660 1449 L 686 1464 L 694 1466 L 706 1472 L 726 1475 L 738 1479 L 761 1479 L 800 1470 L 832 1456 L 854 1439 L 864 1428 L 870 1423 L 872 1420 L 877 1416 L 889 1403 L 893 1400 L 895 1397 L 901 1392 L 904 1387 L 931 1370 L 949 1363 Q 961 1362 970 1357 L 1015 1357 L 1025 1361 L 1039 1362 L 1052 1366 L 1115 1366 Q 1122 1362 1133 1362 L 1154 1354 L 1170 1346 L 1189 1333 L 1195 1326 L 1199 1323 L 1206 1316 L 1218 1298 L 1232 1273 L 1241 1245 Q 1240 1240 1242 1239 L 1242 1219 L 1244 1217 L 1247 1205 L 1247 1190 L 1249 1184 L 1249 1179 L 1258 1152 L 1273 1127 L 1301 1099 L 1314 1090 L 1328 1083 L 1345 1077 L 1347 1075 L 1350 1075 L 1370 1065 L 1405 1039 L 1412 1032 L 1428 1010 L 1436 996 L 1445 973 L 1445 968 L 1448 962 L 1449 948 L 1453 937 L 1453 920 L 1449 908 L 1448 894 L 1445 888 L 1445 882 L 1442 872 L 1434 852 L 1405 801 L 1400 786 L 1400 782 L 1398 780 L 1398 772 L 1395 763 L 1395 737 L 1398 728 L 1398 719 Q 1401 717 1400 712 L 1404 703 L 1404 700 L 1413 682 L 1432 651 L 1440 632 L 1445 617 L 1445 612 L 1448 606 L 1448 597 L 1453 579 L 1453 562 L 1451 559 L 1451 554 L 1448 543 L 1448 536 L 1445 530 L 1443 519 L 1435 500 L 1425 484 L 1422 482 Q 1414 465 1400 454 Q 1397 455 1398 452 L 1395 451 L 1374 435 Q 1370 436 1371 433 L 1347 421 L 1316 408 L 1296 394 L 1272 370 L 1258 347 L 1253 334 L 1247 310 L 1247 293 L 1242 279 L 1242 259 L 1239 250 L 1238 242 L 1233 232 L 1231 223 L 1226 216 L 1225 212 L 1204 180 L 1185 161 L 1169 151 L 1143 138 L 1119 131 L 1050 131 L 1037 134 L 1027 138 L 1022 138 L 1011 141 L 974 141 L 945 133 L 922 122 Q 908 114 898 104 Q 899 101 897 102 L 894 99 L 875 80 L 872 76 L 839 46 L 837 46 L 828 39 L 810 30 L 804 29 L 793 24 Q 777 24 766 19 L 735 19 Z " /><path fill="rgb(255,15,15)" stroke="rgb(255,15,15)" stroke-width="1" opacity="0.996078431372549" d="M 734.5 19 L 765.5 19 Q 776.6 23.9 792.5 24 L 803.5 29 L 809.5 30 L 827.5 39 L 836.5 46 L 838.5 46 L 872 75.5 L 874.5 80 L 894 98.5 L 896.5 102 Q 898.8 101.3 898 103.5 Q 908.1 114.4 921.5 122 L 944.5 133 L 973.5 141 L 1010.5 141 L 1021.5 138 L 1026.5 138 L 1036.5 134 L 1049.5 131 L 1118.5 131 L 1142.5 138 L 1168.5 151 L 1184.5 161 L 1204 179.5 L 1225 211.5 L 1226 215.5 L 1231 222.5 L 1233 231.5 L 1238 241.5 L 1239 249.5 L 1242 258.5 L 1242 278.5 L 1247 292.5 L 1247 309.5 L 1253 333.5 L 1258 346.5 L 1272 369.5 L 1295.5 394 L 1315.5 408 L 1346.5 421 L 1371 433 Q 1369.8 436 1373.5 435 L 1394.5 451 L 1398 452 Q 1396.9 454.7 1399.5 454 Q 1414.2 465.1 1422 482 L 1425 483.5 L 1435 499.5 L 1443 518.5 L 1445 529.5 L 1448 535.5 L 1448 542.5 L 1451 553.5 L 1451 558.5 L 1453 561.5 L 1453 578.5 L 1448 596.5 L 1448 605.5 L 1445 611.5 L 1445 616.5 L 1440 631.5 L 1432 650.5 L 1413 681.5 L 1404 699.5 L 1404 702.5 L 1400 711.5 Q 1401.3 717.2 1398 718.5 L 1398 727.5 L 1395 736.5 L 1395 762.5 L 1398 771.5 L 1398 779.5 L 1400 781.5 L 1400 785.5 L 1405 800.5 L 1434 851.5 L 1442 871.5 L 1445 881.5 L 1445 887.5 L 1448 893.5 L 1449 907.5 L 1453 919.5 L 1453 936.5 L 1449 947.5 L 1448 961.5 L 1445 967.5 L 1445 972.5 L 1436 995.5 L 1428 1009.5 L 1412 1031.5 L 1404.5 1039 L 1369.5 1065 L 1349.5 1075 L 1346.5 1075 L 1344.5 1077 L 1327.5 1083 L 1313.5 1090 L 1300.5 1099 L 1273 1126.5 L 1258 1151.5 L 1249 1178.5 L 1249 1183.5 L 1247 1189.5 L 1247 1204.5 L 1244 1216.5 L 1242 1218.5 L 1242 1238.5 Q 1239.8 1239.8 1241 1244.5 L 1232 1272.5 L 1218 1297.5 L 1206 1315.5 L 1198.5 1323 L 1195 1325.5 L 1188.5 1333 L 1169.5 1346 L 1153.5 1354 L 1132.5 1362 Q 1121.9 1362.4 1114.5 1366 L 1051.5 1366 L 1038.5 1362 L 1024.5 1361 L 1014.5 1357 L 969.5 1357 Q 960.8 1361.8 948.5 1363 L 930.5 1370 L 904 1387 L 900.5 1392 L 895 1396.5 L 892.5 1400 L 889 1402.5 L 876.5 1416 L 872 1419.5 L 869.5 1423 L 864 1427.5 L 853.5 1439 L 831.5 1456 L 799.5 1470 L 760.5 1479 L 737.5 1479 L 725.5 1475 L 705.5 1472 L 693.5 1466 L 685.5 1464 L 659.5 1449 L 643 1437 Q 644.1 1434.3 641.5 1435 L 630.5 1423 Q 628.3 1423.8 629 1421.5 L 621 1415 L 617 1408 L 613 1405.5 L 608.5 1400 Q 606.3 1400.8 607 1398.5 L 598 1390.5 L 595.5 1387 L 575.5 1372 L 570.5 1371 L 554.5 1363 Q 540.8 1362.2 531.5 1357 L 483.5 1357 L 473.5 1361 L 460.5 1362 L 448.5 1366 L 383.5 1366 Q 377.5 1362 367.5 1362 L 349.5 1355 L 329.5 1345 L 306 1327.5 L 302.5 1323 L 300 1321.5 L 297.5 1318 Q 295.3 1318.8 296 1316.5 L 277 1289.5 L 265 1262.5 L 261 1249.5 L 261 1244.5 L 258 1234.5 L 258 1228.5 L 256 1225.5 L 256 1206.5 L 254 1203.5 Q 254.7 1196.8 252 1193.5 L 251 1177.5 L 249 1170.5 L 238 1144.5 L 230 1130.5 L 224 1124.5 L 224 1122 L 218 1117.5 L 206.5 1105 L 188.5 1091 L 156.5 1075 L 147.5 1072 L 119.5 1057 L 93 1035 L 91.5 1032 Q 89.3 1032.8 90 1030.5 L 74 1012.5 L 58 982.5 L 55 971.5 L 55 966.5 L 53 964.5 L 51 956.5 L 50 921.5 L 51 920.5 L 51 899.5 Q 53.5 898 52 892.5 L 55 887.5 L 55 882.5 L 61 863.5 L 74 836.5 L 87 816.5 L 99 789.5 L 100 781.5 L 102 778.5 L 102 771.5 L 104 767.5 L 104 731.5 L 102 725.5 L 102 719.5 L 100 716.5 L 99 708.5 L 95 697.5 L 85 677.5 L 82 674.5 L 80 668.5 L 67 648.5 L 56 620.5 L 55 611.5 L 53 608.5 L 51 598.5 L 50 563.5 L 51 562.5 L 51 542.5 Q 53.3 541.3 52 536.5 L 55 530.5 L 57 518.5 L 76 482 L 79 480.5 L 82 475 L 87 471.5 L 90.5 467 L 97 461.5 L 98.5 459 L 103 455.5 L 105.5 452 L 120.5 440 L 135.5 431 L 171.5 414 L 178.5 412 L 192.5 404 L 215 384.5 L 232 364.5 L 245 338.5 L 251 319.5 Q 250.9 302.9 256 291.5 L 256 271.5 L 258 268.5 L 258 262.5 Q 261.1 257.1 261 248.5 L 265 239.5 L 268 227.5 L 274 217.5 L 277 208.5 L 297.5 179 L 301 176.5 Q 300.3 174.3 302.5 175 L 309.5 167 L 333.5 150 L 351.5 141 L 373.5 134 L 386.5 131 L 450.5 131 L 489.5 141 L 526.5 141 L 536.5 138 L 541.5 138 L 547.5 135 L 562.5 131 L 579.5 123 L 595.5 111 L 611 95.5 L 619 85 L 620.5 85 L 635 70.5 L 644.5 60 L 659.5 48 L 685.5 33 L 700.5 29 L 707.5 25 L 723.5 23 L 734.5 19 Z M 738 26 L 732 28 L 719 29 L 714 32 L 695 37 Q 689 42 680 44 L 667 53 Q 663 52 664 55 L 650 65 L 628 88 L 626 89 L 616 102 L 598 119 L 573 135 L 561 138 L 550 143 L 541 144 L 537 146 L 525 146 L 522 148 L 496 148 L 492 146 L 481 146 Q 475 143 467 143 L 459 140 L 451 140 L 448 138 L 423 137 L 422 136 L 386 138 L 383 140 L 375 141 L 368 144 L 358 146 L 330 161 L 314 174 L 301 187 L 289 202 L 287 208 L 281 216 L 277 227 L 275 229 L 271 244 L 269 247 L 268 254 L 266 256 L 266 263 L 263 275 L 262 300 L 260 308 L 260 316 L 257 323 L 257 329 L 248 349 L 248 352 L 239 368 L 223 388 Q 220 387 221 390 L 199 409 Q 189 412 184 418 L 179 419 L 171 424 L 160 427 L 140 437 Q 122 446 108 459 Q 109 461 107 460 L 85 483 L 85 485 L 79 492 L 70 507 Q 68 517 63 524 L 61 537 L 58 545 L 57 560 L 56 561 L 57 590 L 61 605 L 61 611 Q 64 613 63 619 Q 67 622 67 630 L 69 632 L 70 638 L 78 654 L 82 658 L 82 660 Q 93 673 100 690 L 100 693 L 106 705 L 109 715 L 109 724 L 112 732 L 112 766 L 109 775 L 109 783 Q 106 787 106 794 L 103 798 L 97 815 L 79 843 L 70 861 L 66 875 L 63 879 L 61 894 L 58 902 L 57 918 L 56 919 L 57 947 Q 60 948 58 954 L 61 961 L 61 967 L 69 989 L 79 1006 Q 78 1008 81 1007 Q 85 1017 93 1024 Q 92 1026 95 1025 L 96 1028 L 125 1052 L 152 1067 L 178 1077 L 180 1079 L 183 1079 Q 186 1084 194 1085 L 217 1103 L 218 1106 Q 217 1108 220 1107 L 226 1115 L 229 1116 L 235 1125 Q 234 1128 237 1127 L 242 1136 Q 241 1139 244 1138 L 251 1155 Q 250 1158 253 1157 Q 253 1164 257 1170 L 257 1176 L 260 1183 L 260 1191 L 262 1198 L 262 1210 L 263 1211 L 263 1223 L 266 1236 L 266 1242 L 269 1247 L 272 1262 L 289 1296 L 304 1315 L 309 1318 L 313 1324 L 339 1342 L 357 1351 Q 363 1351 366 1354 L 370 1354 L 374 1357 L 381 1357 L 391 1360 L 406 1360 L 407 1361 L 442 1360 L 453 1357 L 462 1357 L 466 1354 Q 473 1355 477 1352 L 492 1351 L 493 1350 L 503 1350 L 504 1349 L 540 1352 Q 543 1355 551 1354 L 555 1357 L 559 1357 L 567 1360 L 593 1375 L 611 1390 L 632 1416 L 646 1428 L 648 1432 L 675 1451 Q 685 1453 692 1459 L 705 1463 L 709 1466 L 725 1468 L 735 1471 L 755 1472 L 757 1472 L 766 1471 L 771 1469 L 783 1468 L 787 1466 L 792 1466 L 799 1462 L 812 1459 L 828 1451 L 858 1428 L 863 1422 L 866 1420 L 885 1397 L 906 1378 Q 908 1379 907 1376 L 913 1373 Q 916 1374 915 1372 L 928 1364 L 931 1364 L 936 1360 L 939 1360 L 945 1357 L 949 1357 L 954 1354 L 968 1351 L 987 1350 L 988 1349 L 1017 1351 L 1027 1354 L 1034 1354 L 1040 1357 L 1048 1357 L 1060 1360 L 1075 1360 L 1076 1361 L 1110 1360 L 1120 1357 L 1128 1357 L 1131 1354 L 1136 1354 L 1139 1352 L 1152 1349 L 1155 1346 L 1166 1341 L 1178 1333 L 1186 1326 Q 1188 1327 1187 1325 L 1196 1317 L 1199 1313 Q 1198 1310 1201 1311 L 1211 1298 L 1223 1277 L 1223 1274 L 1227 1269 Q 1228 1258 1232 1252 L 1232 1248 L 1235 1243 L 1235 1235 L 1238 1224 L 1238 1211 L 1240 1202 L 1240 1193 L 1244 1175 L 1244 1170 Q 1248 1168 1247 1162 L 1250 1158 L 1251 1152 L 1262 1131 L 1282 1107 Q 1284 1108 1283 1106 Q 1294 1094 1308 1086 L 1325 1077 Q 1333 1076 1339 1071 L 1343 1071 L 1365 1060 L 1382 1049 L 1395 1037 L 1399 1035 L 1399 1034 L 1408 1025 Q 1407 1022 1410 1023 L 1423 1006 L 1437 978 L 1438 971 L 1440 967 L 1440 962 L 1444 951 L 1444 942 L 1446 933 L 1444 905 Q 1442 903 1443 899 L 1440 893 L 1438 879 L 1434 872 L 1434 869 L 1431 864 L 1428 854 L 1401 808 L 1399 798 L 1396 795 Q 1396 787 1392 783 L 1391 769 L 1390 768 L 1390 758 L 1389 757 L 1389 742 L 1390 741 L 1391 721 L 1397 703 Q 1396 700 1399 701 L 1399 696 Q 1402 694 1401 690 L 1407 681 L 1410 673 L 1422 656 L 1431 638 L 1434 627 L 1437 623 L 1440 610 L 1440 605 L 1443 600 L 1445 575 L 1446 574 L 1444 548 L 1440 537 L 1440 532 L 1437 521 L 1422 491 L 1407 473 Q 1408 470 1406 471 L 1404 469 L 1388 454 Q 1385 455 1386 453 L 1381 448 L 1379 448 L 1377 445 L 1344 427 L 1333 424 L 1313 414 Q 1310 415 1311 412 L 1304 409 L 1292 400 L 1289 396 L 1281 390 Q 1282 387 1280 388 L 1265 371 Q 1266 368 1264 369 L 1253 351 L 1250 341 L 1247 337 L 1247 333 L 1244 328 L 1244 323 L 1240 306 L 1240 296 L 1238 288 L 1238 275 L 1235 264 L 1235 256 L 1232 251 L 1232 246 L 1229 241 L 1227 230 L 1211 201 L 1196 182 L 1173 161 L 1171 161 L 1160 153 L 1146 146 L 1126 140 L 1121 140 L 1118 138 L 1091 137 L 1090 136 L 1066 137 L 1065 138 L 1050 138 L 1047 140 L 1042 140 L 1021 146 Q 1009 144 1005 148 L 979 148 L 977 146 L 965 146 L 952 143 L 927 133 L 909 122 L 899 113 L 896 112 L 892 108 L 889 105 L 883 98 L 879 95 L 878 92 L 870 84 L 868 81 L 857 70 L 855 67 L 839 55 Q 836 56 837 54 L 809 37 L 799 35 L 794 32 L 789 32 L 782 29 L 775 29 L 763 26 L 738 26 Z " /><path fill="rgb(255,15,15)" stroke="rgb(255,15,15)" stroke-width="1" opacity="0.996078431372549" d="M 1108.5 550 L 1113.5 550 L 1121.5 553 L 1128.5 553 L 1134.5 556 L 1147 566.5 L 1156 580.5 Q 1155.1 589.4 1159 593.5 L 1159 601.5 L 1157 604.5 L 1156 614.5 L 1153 620.5 L 1142.5 634 Q 1140.3 633.3 1141 635.5 L 1132 643 Q 1133.1 645.7 1130.5 645 L 1127.5 649 L 1125 650.5 L 1123 653.5 L 1120 655 L 1118.5 658 L 1116 659.5 L 1114 662.5 L 1108 667 Q 1109.1 669.7 1106.5 669 L 1103.5 673 L 1101 674.5 L 1099 677.5 L 1096 679 L 1094.5 682 Q 1092.3 681.3 1093 683.5 L 1090 685 L 1087.5 689 Q 1085.3 688.3 1086 690.5 L 1081 694 L 1079.5 697 L 1075 700.5 L 1073.5 703 L 1071 704.5 L 1069 707.5 L 1066 709 L 1063.5 713 L 1062 713 L 1062 715 Q 1059.3 713.9 1060 716.5 L 1051 724.5 L 1049.5 727 L 1047 728.5 L 1045 731.5 L 1042 733 L 1039.5 737 L 1038 737 L 1038 739 Q 1035.3 737.9 1036 740.5 L 1032 743 L 1030.5 746 L 1027.5 748 L 1024.5 752 L 1023 752 L 1023 754 Q 1020.3 752.9 1021 755.5 L 1012 763 L 1009.5 767 Q 1007.3 766.3 1008 768.5 L 1005 770 L 1003.5 773 Q 1001.3 772.3 1002 774.5 L 999 776 Q 1000.1 778.7 997.5 778 L 994.5 782 Q 992.3 781.3 993 783.5 L 988 787 L 985.5 791 L 982.5 793 L 979.5 797 Q 977.3 796.3 978 798.5 L 975 800 Q 976.1 802.7 973.5 802 L 970.5 806 L 968 807.5 L 966 810.5 L 960 815 Q 961.1 817.7 958.5 817 L 955.5 821 Q 953.3 820.3 954 822.5 L 951 824 L 949.5 827 Q 947.3 826.3 948 828.5 L 944 831.5 L 942 834.5 L 933 842 L 931.5 845 L 929 846.5 L 927 849.5 L 924 851 L 922.5 854 Q 920.3 853.3 921 855.5 L 918 857 L 915.5 861 Q 913.3 860.3 914 862.5 L 905 870 L 905 872 Q 902.3 870.9 903 873.5 L 899 876.5 L 897 879.5 L 894 881 L 891.5 885 L 888.5 887 L 887 890 L 873.5 900 L 850.5 911 L 840.5 912 L 836.5 915 L 806.5 915 L 802.5 912 L 792.5 911 L 790.5 909 L 785.5 908 L 778.5 908 L 769.5 912 L 764.5 916 L 761.5 916 L 755.5 919 L 748 919 Q 749.3 922.3 744.5 921 L 743.5 922 L 723.5 923 L 722.5 922 L 708.5 922 L 703.5 919 L 696.5 919 Q 694.2 915.2 687.5 916 L 666.5 903 L 524 761.5 Q 524.8 759.3 522.5 760 L 495 732.5 L 487 720.5 L 484 709.5 L 484 691.5 L 487 680.5 Q 492.2 670.2 500.5 663 L 512.5 655 L 519.5 654 L 522.5 652 L 536.5 651 Q 538 653.5 543.5 652 L 545.5 654 L 550.5 654 L 557.5 657 L 570 667.5 Q 569.3 669.8 571.5 669 L 579.5 678 Q 584.6 678.6 586 675.5 L 586 672.5 L 590 665 Q 592.7 666.1 592 663.5 L 595 662 L 598.5 657 L 608.5 652 L 611.5 649 L 632.5 647 Q 637.4 650.3 646 649 L 647.5 652 L 650.5 652 L 661 659.5 L 662.5 662 L 665.5 664 L 668 668 Q 670.7 666.9 670 669.5 L 676 674.5 L 677.5 677 L 680.5 679 L 682 682 L 685 683.5 L 686.5 686 L 689.5 688 L 692 692 Q 694.7 690.9 694 693.5 L 698 696.5 L 700 699.5 L 706 704.5 L 707.5 707 Q 709.8 706.3 709 708.5 L 712 710 Q 710.9 712.7 713.5 712 L 716 716 Q 718.7 714.9 718 717.5 L 722 720.5 Q 721.3 722.8 723.5 722 L 728.5 728 L 731 729.5 L 733 732.5 L 740 738.5 L 742 741.5 L 746 744.5 Q 745.3 746.8 747.5 746 L 749 749 L 752 750.5 Q 751.3 752.8 753.5 752 L 758.5 758 L 764 762.5 L 766 765.5 L 770 768.5 L 772.5 772 L 775.5 773 L 781 769.5 L 786.5 763 L 789 761.5 L 794.5 755 L 798 752.5 L 801.5 748 L 805 745.5 L 817.5 732 L 819 732 L 819 730 Q 821.7 731.1 821 728.5 L 829 721.5 L 841.5 708 Q 843.8 708.8 843 706.5 L 852 698.5 L 864.5 685 L 867 683.5 L 871.5 678 L 876 674.5 L 880.5 669 L 883 667.5 L 888.5 661 Q 890.8 661.8 890 659.5 L 900 650.5 L 903.5 646 L 906 644.5 L 919.5 630 L 924 626.5 L 925.5 624 L 930 620.5 L 935.5 614 Q 937.8 614.8 937 612.5 L 946 604.5 L 949.5 600 L 953 597.5 L 958.5 591 L 961 589.5 L 966.5 583 L 969 581.5 L 973.5 576 L 977 573.5 L 982.5 567 L 996.5 558 L 1005.5 555 Q 1013 556.5 1016.5 554 L 1017.5 555 L 1025.5 555 L 1035.5 558 Q 1047.4 563.6 1055 573.5 L 1060.5 580 L 1069 573.5 L 1070.5 571 Q 1072.8 571.8 1072 569.5 L 1075 568 L 1076.5 565 L 1079 563.5 Q 1078.3 561.3 1080.5 562 L 1087 558 Q 1085.9 555.3 1088.5 556 L 1094.5 553 Q 1104 554.1 1108.5 550 Z " /><path fill="rgb(255,0,0)" stroke="rgb(255,0,0)" stroke-width="1" opacity="1" d="M 737.5 26 L 762.5 26 L 774.5 29 L 781.5 29 L 788.5 32 L 793.5 32 L 798.5 35 L 808.5 37 L 837 53.5 Q 836.3 55.8 838.5 55 L 855 67 L 856.5 70 L 868 80.5 L 870 83.5 L 878 91.5 L 879 95 L 883 97.5 L 888.5 105 L 892 107.5 L 895.5 112 L 898.5 113 L 908.5 122 L 926.5 133 L 951.5 143 L 964.5 146 L 976.5 146 L 978.5 148 L 1004.5 148 Q 1009.5 144 1020.5 146 L 1041.5 140 L 1046.5 140 L 1049.5 138 L 1064.5 138 L 1065.5 137 L 1089.5 136 L 1090.5 137 L 1117.5 138 L 1120.5 140 L 1125.5 140 L 1145.5 146 L 1159.5 153 L 1170.5 161 L 1172.5 161 L 1196 181.5 L 1211 200.5 L 1227 229.5 L 1229 240.5 L 1232 245.5 L 1232 250.5 L 1235 255.5 L 1235 263.5 L 1238 274.5 L 1238 287.5 L 1240 295.5 L 1240 305.5 L 1244 322.5 L 1244 327.5 L 1247 332.5 L 1247 336.5 L 1250 340.5 L 1253 350.5 L 1263.5 369 Q 1265.8 368.3 1265 370.5 L 1279.5 388 Q 1281.8 387.3 1281 389.5 L 1289 396 L 1291.5 400 L 1303.5 409 L 1311 412 Q 1309.9 414.7 1312.5 414 L 1332.5 424 L 1343.5 427 L 1377 445 L 1378.5 448 L 1380.5 448 L 1386 452.5 Q 1385.3 454.8 1387.5 454 L 1404 468.5 L 1405.5 471 Q 1407.8 470.3 1407 472.5 L 1422 490.5 L 1437 520.5 L 1440 531.5 L 1440 536.5 L 1444 547.5 L 1446 573.5 L 1445 574.5 L 1443 599.5 L 1440 604.5 L 1440 609.5 L 1437 622.5 L 1434 626.5 L 1431 637.5 L 1422 655.5 L 1410 672.5 L 1407 680.5 L 1401 689.5 Q 1401.6 694.1 1399 695.5 L 1399 701 Q 1396.3 699.9 1397 702.5 L 1391 720.5 L 1390 740.5 L 1389 741.5 L 1389 756.5 L 1390 757.5 L 1390 767.5 L 1391 768.5 L 1392 782.5 Q 1395.7 786.8 1396 794.5 L 1399 797.5 L 1401 807.5 L 1428 853.5 L 1431 863.5 L 1434 868.5 L 1434 871.5 L 1438 878.5 L 1440 892.5 L 1443 898.5 Q 1441.7 903.2 1444 904.5 L 1446 932.5 L 1444 941.5 L 1444 950.5 L 1440 961.5 L 1440 966.5 L 1438 970.5 L 1437 977.5 L 1423 1005.5 L 1410 1023 Q 1407.3 1021.9 1408 1024.5 L 1399 1033.5 L 1399 1035 L 1394.5 1037 L 1381.5 1049 L 1364.5 1060 L 1342.5 1071 L 1338.5 1071 Q 1333.5 1076 1324.5 1077 L 1307.5 1086 Q 1293.8 1094.3 1283 1105.5 Q 1283.8 1107.8 1281.5 1107 L 1262 1130.5 L 1251 1151.5 L 1250 1157.5 L 1247 1161.5 Q 1247.6 1167.6 1244 1169.5 L 1244 1174.5 L 1240 1192.5 L 1240 1201.5 L 1238 1210.5 L 1238 1223.5 L 1235 1234.5 L 1235 1242.5 L 1232 1247.5 L 1232 1251.5 Q 1227.5 1258 1227 1268.5 L 1223 1273.5 L 1223 1276.5 L 1211 1297.5 L 1200.5 1311 Q 1198.3 1310.3 1199 1312.5 L 1196 1317 L 1187 1324.5 Q 1187.8 1326.8 1185.5 1326 L 1177.5 1333 L 1165.5 1341 L 1154.5 1346 L 1151.5 1349 L 1138.5 1352 L 1135.5 1354 L 1130.5 1354 L 1127.5 1357 L 1119.5 1357 L 1109.5 1360 L 1075.5 1361 L 1074.5 1360 L 1059.5 1360 L 1047.5 1357 L 1039.5 1357 L 1033.5 1354 L 1026.5 1354 L 1016.5 1351 L 987.5 1349 L 986.5 1350 L 967.5 1351 L 953.5 1354 L 948.5 1357 L 944.5 1357 L 938.5 1360 L 935.5 1360 L 930.5 1364 L 927.5 1364 L 915 1371.5 Q 915.8 1374.1 912.5 1373 L 907 1376 Q 908.1 1378.7 905.5 1378 L 885 1396.5 L 865.5 1420 L 862.5 1422 L 857.5 1428 L 827.5 1451 L 811.5 1459 L 798.5 1462 L 791.5 1466 L 786.5 1466 L 782.5 1468 L 770.5 1469 L 765.5 1471 L 756.5 1472 L 754.5 1472 L 734.5 1471 L 724.5 1468 L 708.5 1466 L 704.5 1463 L 691.5 1459 Q 684.7 1453.3 674.5 1451 L 648 1432 L 645.5 1428 L 632 1415.5 L 610.5 1390 L 592.5 1375 L 566.5 1360 L 558.5 1357 L 554.5 1357 L 550.5 1354 Q 543.1 1354.9 539.5 1352 L 503.5 1349 L 502.5 1350 L 492.5 1350 L 491.5 1351 L 476.5 1352 Q 472.9 1354.9 465.5 1354 L 461.5 1357 L 452.5 1357 L 441.5 1360 L 406.5 1361 L 405.5 1360 L 390.5 1360 L 380.5 1357 L 373.5 1357 L 369.5 1354 L 365.5 1354 Q 362.5 1351 356.5 1351 L 338.5 1342 L 313 1324 L 308.5 1318 L 304 1314.5 L 289 1295.5 L 272 1261.5 L 269 1246.5 L 266 1241.5 L 266 1235.5 L 263 1222.5 L 263 1210.5 L 262 1209.5 L 262 1197.5 L 260 1190.5 L 260 1182.5 L 257 1175.5 L 257 1169.5 Q 253.2 1164.5 253 1157 Q 250 1158.3 251 1154.5 L 244 1138 Q 241 1139.3 242 1135.5 L 236.5 1127 Q 233.9 1127.8 235 1124.5 L 229 1116 L 226 1114.5 L 219.5 1107 Q 217.3 1107.8 218 1105.5 L 217 1103 L 193.5 1085 Q 186.3 1083.7 182.5 1079 L 179.5 1079 L 177.5 1077 L 151.5 1067 L 124.5 1052 L 96 1027.5 L 94.5 1025 Q 92.3 1025.8 93 1023.5 Q 85 1016.6 81 1007 Q 78.3 1008.1 79 1005.5 L 69 988.5 L 61 966.5 L 61 960.5 L 58 953.5 Q 59.5 948 57 946.5 L 56 918.5 L 57 917.5 L 58 901.5 L 61 893.5 L 63 878.5 L 66 874.5 L 70 860.5 L 79 842.5 L 97 814.5 L 103 797.5 L 106 793.5 Q 106 786.5 109 782.5 L 109 774.5 L 112 765.5 L 112 731.5 L 109 723.5 L 109 714.5 L 106 704.5 L 100 692.5 L 100 689.5 Q 92.5 673 82 659.5 L 82 657.5 L 78 653.5 L 70 637.5 L 69 631.5 L 67 629.5 Q 66.7 622.3 63 618.5 Q 63.7 612.8 61 610.5 L 61 604.5 L 57 589.5 L 56 560.5 L 57 559.5 L 58 544.5 L 61 536.5 L 63 523.5 Q 68.1 516.6 70 506.5 L 79 491.5 L 85 484.5 L 85 482.5 L 106.5 460 Q 108.8 460.8 108 458.5 Q 122 446 139.5 437 L 159.5 427 L 170.5 424 L 178.5 419 L 183.5 418 Q 189.5 412 198.5 409 L 221 389.5 Q 220.3 387.3 222.5 388 L 239 367.5 L 248 351.5 L 248 348.5 L 257 328.5 L 257 322.5 L 260 315.5 L 260 307.5 L 262 299.5 L 263 274.5 L 266 262.5 L 266 255.5 L 268 253.5 L 269 246.5 L 271 243.5 L 275 228.5 L 277 226.5 L 281 215.5 L 287 207.5 L 289 201.5 L 301 186.5 L 313.5 174 L 329.5 161 L 357.5 146 L 367.5 144 L 374.5 141 L 382.5 140 L 385.5 138 L 421.5 136 L 422.5 137 L 447.5 138 L 450.5 140 L 458.5 140 L 466.5 143 Q 475.1 142.9 480.5 146 L 491.5 146 L 495.5 148 L 521.5 148 L 524.5 146 L 536.5 146 L 540.5 144 L 549.5 143 L 560.5 138 L 572.5 135 L 597.5 119 L 616 101.5 L 625.5 89 L 628 87.5 L 649.5 65 L 664 54.5 Q 663.2 51.9 666.5 53 L 679.5 44 Q 688.6 42.2 694.5 37 L 713.5 32 L 718.5 29 L 731.5 28 L 737.5 26 Z M 1109 550 Q 1104 554 1095 553 L 1089 556 Q 1086 555 1087 558 L 1081 562 Q 1078 561 1079 564 L 1077 565 L 1075 568 L 1072 570 Q 1073 572 1071 571 L 1069 574 L 1061 580 L 1055 574 Q 1047 564 1036 558 L 1026 555 L 1018 555 L 1017 554 Q 1013 557 1006 555 L 997 558 L 983 567 L 977 574 L 974 576 L 969 582 L 967 583 L 961 590 L 959 591 L 953 598 L 950 600 L 946 605 L 937 613 Q 938 615 936 614 L 930 621 L 926 624 L 924 627 L 920 630 L 906 645 L 904 646 L 900 651 L 890 660 Q 891 662 889 661 L 883 668 L 881 669 L 876 675 L 872 678 L 867 684 L 865 685 L 852 699 L 843 707 Q 844 709 842 708 L 829 722 L 821 729 Q 822 731 819 730 L 819 732 L 818 732 L 805 746 L 802 748 L 798 753 L 795 755 L 789 762 L 787 763 L 781 770 L 776 773 L 773 772 L 770 769 L 766 766 L 764 763 L 759 758 L 754 752 Q 751 753 752 751 L 749 749 L 748 746 Q 745 747 746 745 L 742 742 L 740 739 L 733 733 L 731 730 L 729 728 L 724 722 Q 721 723 722 721 L 718 718 Q 719 715 716 716 L 714 712 Q 711 713 712 710 L 709 709 Q 710 706 708 707 L 706 705 L 700 700 L 698 697 L 694 694 Q 695 691 692 692 L 690 688 L 687 686 L 685 684 L 682 682 L 681 679 L 678 677 L 676 675 L 670 670 Q 671 667 668 668 L 666 664 L 663 662 L 661 660 L 651 652 L 648 652 L 646 649 Q 637 650 633 647 L 612 649 L 609 652 L 599 657 L 595 662 L 592 664 Q 593 666 590 665 L 586 673 L 586 676 Q 585 679 580 678 L 572 669 Q 569 670 570 668 L 558 657 L 551 654 L 546 654 L 544 652 Q 538 654 537 651 L 523 652 L 520 654 L 513 655 L 501 663 Q 492 670 487 681 L 484 692 L 484 710 L 487 721 L 495 733 L 523 760 Q 525 759 524 762 L 667 903 L 688 916 Q 694 915 697 919 L 704 919 L 709 922 L 723 922 L 724 923 L 744 922 L 745 921 Q 749 922 748 919 L 756 919 L 762 916 L 765 916 L 770 912 L 779 908 L 786 908 L 791 909 L 793 911 L 803 912 L 807 915 L 837 915 L 841 912 L 851 911 L 874 900 L 887 890 L 889 887 L 892 885 L 894 881 L 897 880 L 899 877 L 903 874 Q 902 871 905 872 L 905 870 L 914 863 Q 913 860 916 861 L 918 857 L 921 856 Q 920 853 923 854 L 924 851 L 927 850 L 929 847 L 932 845 L 933 842 L 942 835 L 944 832 L 948 829 Q 947 826 950 827 L 951 824 L 954 823 Q 953 820 956 821 L 959 817 Q 961 818 960 815 L 966 811 L 968 808 L 971 806 L 974 802 Q 976 803 975 800 L 978 799 Q 977 796 980 797 L 983 793 L 986 791 L 988 787 L 993 784 Q 992 781 995 782 L 998 778 Q 1000 779 999 776 L 1002 775 Q 1001 772 1004 773 L 1005 770 L 1008 769 Q 1007 766 1010 767 L 1012 763 L 1021 756 Q 1020 753 1023 754 L 1023 752 L 1025 752 L 1028 748 L 1031 746 L 1032 743 L 1036 741 Q 1035 738 1038 739 L 1038 737 L 1040 737 L 1042 733 L 1045 732 L 1047 729 L 1050 727 L 1051 725 L 1060 717 Q 1059 714 1062 715 L 1062 713 L 1064 713 L 1066 709 L 1069 708 L 1071 705 L 1074 703 L 1075 701 L 1080 697 L 1081 694 L 1086 691 Q 1085 688 1088 689 L 1090 685 L 1093 684 Q 1092 681 1095 682 L 1096 679 L 1099 678 L 1101 675 L 1104 673 L 1107 669 Q 1109 670 1108 667 L 1114 663 L 1116 660 L 1119 658 L 1120 655 L 1123 654 L 1125 651 L 1128 649 L 1131 645 Q 1133 646 1132 643 L 1141 636 Q 1140 633 1143 634 L 1153 621 L 1156 615 L 1157 605 L 1159 602 L 1159 594 Q 1155 589 1156 581 L 1147 567 L 1135 556 L 1129 553 L 1122 553 L 1114 550 L 1109 550 Z " /></svg>